<svg width="44" height="48" viewBox="0 0 44 48" fill="none" xmlns="http://www.w3.org/2000/svg">
<g clip-path="url(#clip0_10_56)">
<path d="M18.629 5.26467C18.3686 5.26488 18.1141 5.18701 17.8976 5.04091C17.6811 4.8948 17.5123 4.68704 17.4126 4.44389C17.3128 4.20074 17.2867 3.93315 17.3374 3.67497C17.3882 3.4168 17.5135 3.17964 17.6976 2.99351C17.8816 2.80739 18.1161 2.68066 18.3715 2.62936C18.6268 2.57806 18.8914 2.6045 19.1319 2.70533C19.3723 2.80616 19.5778 2.97685 19.7223 3.1958C19.8667 3.41476 19.9437 3.67213 19.9435 3.93535C19.943 4.28773 19.8043 4.62551 19.5579 4.87468C19.3115 5.12385 18.9774 5.26409 18.629 5.26467Z" fill="url(#paint0_linear_10_56)"/>
<path d="M18.629 5.26467C18.3686 5.26488 18.1141 5.18701 17.8976 5.04091C17.6811 4.8948 17.5123 4.68704 17.4126 4.44389C17.3128 4.20074 17.2867 3.93315 17.3374 3.67497C17.3882 3.4168 17.5135 3.17964 17.6976 2.99351C17.8816 2.80739 18.1161 2.68066 18.3715 2.62936C18.6268 2.57806 18.8914 2.6045 19.1319 2.70533C19.3723 2.80616 19.5778 2.97685 19.7223 3.1958C19.8667 3.41476 19.9437 3.67213 19.9435 3.93535C19.943 4.28773 19.8043 4.62551 19.5579 4.87468C19.3115 5.12385 18.9774 5.26409 18.629 5.26467Z" fill="url(#paint1_linear_10_56)"/>
<path fill-rule="evenodd" clip-rule="evenodd" d="M28.646 29.8543C29.861 28.34 30.5534 26.8525 30.882 25.2662C31.0424 24.4917 31.116 23.6937 31.1214 22.8576C31.1378 20.309 30.2966 17.8305 28.7361 15.8291C27.1755 13.8277 24.9883 12.4224 22.5337 11.8439C20.079 11.2654 17.5028 11.5482 15.228 12.6457C12.9533 13.7433 11.1152 15.5904 10.0156 17.8838C8.91608 20.1771 8.6204 22.7804 9.17714 25.2662C9.73389 27.7519 11.11 29.9723 13.0794 31.5628C15.0489 33.1533 17.4946 34.0193 20.0151 34.0186C20.7919 34.0188 21.5667 33.9369 22.3267 33.7743C23.9579 33.4241 25.4894 32.7043 26.8058 31.669C28.1222 30.6338 28.646 29.8543 28.646 29.8543ZM16.6449 30.7262C18.268 31.4307 20.067 31.6092 21.7946 31.2373V31.234C22.9828 30.9791 24.0084 30.6993 25.1402 29.8543C25.949 29.2505 26.3012 28.7133 26.8957 27.8937C27.6494 26.8548 28.1052 25.8602 28.3445 24.8219C28.4952 24.1679 28.56 23.4965 28.5593 22.7858C28.5591 20.9997 28.0115 19.2576 26.9919 17.7992C25.9723 16.3408 24.5308 15.2377 22.8658 14.6418C21.2007 14.0459 19.3939 13.9864 17.6941 14.4716C15.9942 14.9568 14.4849 15.9627 13.3737 17.351C12.2624 18.7393 11.604 20.4417 11.489 22.224C11.3739 24.0063 11.8079 25.7808 12.7313 27.3033C13.6546 28.8259 15.0218 30.0217 16.6449 30.7262Z" fill="url(#paint2_linear_10_56)"/>
<path fill-rule="evenodd" clip-rule="evenodd" d="M28.646 29.8543C29.861 28.34 30.5534 26.8525 30.882 25.2662C31.0424 24.4917 31.116 23.6937 31.1214 22.8576C31.1378 20.309 30.2966 17.8305 28.7361 15.8291C27.1755 13.8277 24.9883 12.4224 22.5337 11.8439C20.079 11.2654 17.5028 11.5482 15.228 12.6457C12.9533 13.7433 11.1152 15.5904 10.0156 17.8838C8.91608 20.1771 8.6204 22.7804 9.17714 25.2662C9.73389 27.7519 11.11 29.9723 13.0794 31.5628C15.0489 33.1533 17.4946 34.0193 20.0151 34.0186C20.7919 34.0188 21.5667 33.9369 22.3267 33.7743C23.9579 33.4241 25.4894 32.7043 26.8058 31.669C28.1222 30.6338 28.646 29.8543 28.646 29.8543ZM16.6449 30.7262C18.268 31.4307 20.067 31.6092 21.7946 31.2373V31.234C22.9828 30.9791 24.0084 30.6993 25.1402 29.8543C25.949 29.2505 26.3012 28.7133 26.8957 27.8937C27.6494 26.8548 28.1052 25.8602 28.3445 24.8219C28.4952 24.1679 28.56 23.4965 28.5593 22.7858C28.5591 20.9997 28.0115 19.2576 26.9919 17.7992C25.9723 16.3408 24.5308 15.2377 22.8658 14.6418C21.2007 14.0459 19.3939 13.9864 17.6941 14.4716C15.9942 14.9568 14.4849 15.9627 13.3737 17.351C12.2624 18.7393 11.604 20.4417 11.489 22.224C11.3739 24.0063 11.8079 25.7808 12.7313 27.3033C13.6546 28.8259 15.0218 30.0217 16.6449 30.7262Z" fill="url(#paint3_linear_10_56)"/>
<path fill-rule="evenodd" clip-rule="evenodd" d="M22.3234 2.73097C22.0434 1.84759 21.4634 1.09282 20.6861 0.60016C19.9088 0.107504 18.9842 -0.0912921 18.0759 0.0389345C17.1676 0.169161 16.3341 0.620018 15.7228 1.31176C15.1116 2.0035 14.762 2.89156 14.7358 3.81884C14.7096 4.74613 15.0086 5.65289 15.5799 6.37876C16.1511 7.10462 16.9578 7.60281 17.8573 7.7852C18.7568 7.96759 19.6911 7.82243 20.4949 7.3754C21.2987 6.92837 21.9203 6.20827 22.2497 5.34247C30.8341 6.45809 37.4081 13.909 37.4081 22.7825C37.4081 27.4038 35.8507 31.4696 32.8986 34.6269L34.638 36.5578C38.1374 32.8943 39.9787 28.1589 39.9787 22.7825C39.9765 12.5074 32.3015 3.8959 22.3234 2.73097ZM17.8976 5.04091C18.1141 5.18701 18.3686 5.26488 18.629 5.26467C18.9774 5.26409 19.3115 5.12385 19.5579 4.87468C19.8043 4.62551 19.943 4.28773 19.9435 3.93535C19.9437 3.67213 19.8667 3.41476 19.7223 3.1958C19.5778 2.97685 19.3723 2.80616 19.1319 2.70533C18.8914 2.6045 18.6268 2.57806 18.3715 2.62936C18.1161 2.68066 17.8816 2.80739 17.6976 2.99351C17.5135 3.17964 17.3882 3.4168 17.3374 3.67497C17.2867 3.93315 17.3128 4.20074 17.4126 4.44389C17.5123 4.68704 17.6811 4.8948 17.8976 5.04091Z" fill="url(#paint4_linear_10_56)"/>
<path fill-rule="evenodd" clip-rule="evenodd" d="M22.3234 2.73097C22.0434 1.84759 21.4634 1.09282 20.6861 0.60016C19.9088 0.107504 18.9842 -0.0912921 18.0759 0.0389345C17.1676 0.169161 16.3341 0.620018 15.7228 1.31176C15.1116 2.0035 14.762 2.89156 14.7358 3.81884C14.7096 4.74613 15.0086 5.65289 15.5799 6.37876C16.1511 7.10462 16.9578 7.60281 17.8573 7.7852C18.7568 7.96759 19.6911 7.82243 20.4949 7.3754C21.2987 6.92837 21.9203 6.20827 22.2497 5.34247C30.8341 6.45809 37.4081 13.909 37.4081 22.7825C37.4081 27.4038 35.8507 31.4696 32.8986 34.6269L34.638 36.5578C38.1374 32.8943 39.9787 28.1589 39.9787 22.7825C39.9765 12.5074 32.3015 3.8959 22.3234 2.73097ZM17.8976 5.04091C18.1141 5.18701 18.3686 5.26488 18.629 5.26467C18.9774 5.26409 19.3115 5.12385 19.5579 4.87468C19.8043 4.62551 19.943 4.28773 19.9435 3.93535C19.9437 3.67213 19.8667 3.41476 19.7223 3.1958C19.5778 2.97685 19.3723 2.80616 19.1319 2.70533C18.8914 2.6045 18.6268 2.57806 18.3715 2.62936C18.1161 2.68066 17.8816 2.80739 17.6976 2.99351C17.5135 3.17964 17.3882 3.4168 17.3374 3.67497C17.2867 3.93315 17.3128 4.20074 17.4126 4.44389C17.5123 4.68704 17.6811 4.8948 17.8976 5.04091Z" fill="url(#paint5_linear_10_56)"/>
<path d="M22.614 37.7413C21.8162 37.743 21.0382 37.9927 20.3856 38.4568C19.733 38.9208 19.2374 39.5767 18.9661 40.3353C9.86263 39.7874 2.62213 32.1238 2.62213 22.7824C2.61769 20.1651 3.19301 17.58 4.30585 15.2169C5.4187 12.8538 7.0408 10.7728 9.05307 9.12655L7.43612 7.11011C5.12731 8.99959 3.26616 11.3879 1.98925 14.0996C0.712347 16.8114 0.0520823 19.7779 0.0569111 22.7813C0.0569111 33.5474 8.43534 42.3715 18.9455 42.937C19.1765 43.6195 19.5891 44.2244 20.1378 44.6853C20.6866 45.1463 21.3504 45.4454 22.0562 45.5498C22.7621 45.6543 23.4828 45.56 24.1391 45.2774C24.7955 44.9948 25.3622 44.5347 25.7769 43.9477C26.1916 43.3608 26.4383 42.6696 26.49 41.9501C26.5417 41.2306 26.3963 40.5106 26.0698 39.8692C25.7434 39.2278 25.2484 38.6898 24.6393 38.3142C24.0302 37.9386 23.3306 37.74 22.6172 37.7402L22.614 37.7413ZM22.614 43.0016C22.354 43.0016 22.0998 42.9236 21.8836 42.7776C21.6674 42.6315 21.4989 42.4239 21.3994 42.181C21.2999 41.9381 21.2739 41.6708 21.3246 41.413C21.3754 41.1551 21.5006 40.9182 21.6844 40.7323C21.8683 40.5464 22.1025 40.4198 22.3575 40.3685C22.6125 40.3172 22.8768 40.3436 23.117 40.4442C23.3572 40.5448 23.5625 40.7152 23.707 40.9338C23.8514 41.1524 23.9285 41.4094 23.9285 41.6723C23.9274 42.0242 23.7884 42.3613 23.542 42.6098C23.2957 42.8583 22.962 42.998 22.614 42.9983V43.0016Z" fill="url(#paint6_linear_10_56)"/>
<path d="M22.614 37.7413C21.8162 37.743 21.0382 37.9927 20.3856 38.4568C19.733 38.9208 19.2374 39.5767 18.9661 40.3353C9.86263 39.7874 2.62213 32.1238 2.62213 22.7824C2.61769 20.1651 3.19301 17.58 4.30585 15.2169C5.4187 12.8538 7.0408 10.7728 9.05307 9.12655L7.43612 7.11011C5.12731 8.99959 3.26616 11.3879 1.98925 14.0996C0.712347 16.8114 0.0520823 19.7779 0.0569111 22.7813C0.0569111 33.5474 8.43534 42.3715 18.9455 42.937C19.1765 43.6195 19.5891 44.2244 20.1378 44.6853C20.6866 45.1463 21.3504 45.4454 22.0562 45.5498C22.7621 45.6543 23.4828 45.56 24.1391 45.2774C24.7955 44.9948 25.3622 44.5347 25.7769 43.9477C26.1916 43.3608 26.4383 42.6696 26.49 41.9501C26.5417 41.2306 26.3963 40.5106 26.0698 39.8692C25.7434 39.2278 25.2484 38.6898 24.6393 38.3142C24.0302 37.9386 23.3306 37.74 22.6172 37.7402L22.614 37.7413ZM22.614 43.0016C22.354 43.0016 22.0998 42.9236 21.8836 42.7776C21.6674 42.6315 21.4989 42.4239 21.3994 42.181C21.2999 41.9381 21.2739 41.6708 21.3246 41.413C21.3754 41.1551 21.5006 40.9182 21.6844 40.7323C21.8683 40.5464 22.1025 40.4198 22.3575 40.3685C22.6125 40.3172 22.8768 40.3436 23.117 40.4442C23.3572 40.5448 23.5625 40.7152 23.707 40.9338C23.8514 41.1524 23.9285 41.4094 23.9285 41.6723C23.9274 42.0242 23.7884 42.3613 23.542 42.6098C23.2957 42.8583 22.962 42.998 22.614 42.9983V43.0016Z" fill="url(#paint7_linear_10_56)"/>
<path opacity="0.2" d="M34.623 36.5482L32.889 34.6304C32.889 34.6304 34.0859 33.2858 34.6772 32.329C35.2191 31.4523 35.5075 30.962 35.9235 30.0276C36.3871 28.9865 36.5738 28.3838 36.5738 28.3838L39.1206 28.8769C39.1206 28.8769 38.8496 29.6989 38.3078 31.0687C37.8743 32.1646 37.5085 32.7945 36.8447 33.8084C36.0894 34.9622 35.6526 35.5071 34.623 36.5482Z" fill="black"/>
<path opacity="0.2" d="M21.7947 31.2341C22.983 30.9792 24.0085 30.6994 25.1404 29.8544C25.9491 29.2506 26.3013 28.7134 26.8959 27.8938C27.6496 26.8549 28.1053 25.8603 28.3446 24.822L30.8821 25.2663C30.5536 26.8526 29.8611 28.3401 28.6461 29.8544C28.6461 29.8544 28.1223 30.6339 26.8059 31.6692C25.4895 32.7044 24.2135 33.3686 22.3268 33.7744L21.7947 31.2374V31.2341Z" fill="black"/>
<path d="M21.9432 24.3289L31.3955 48.0001L34.4953 37.8487L43.9432 34.5276L21.9432 24.3289Z" fill="url(#paint8_linear_10_56)"/>
</g>
<defs>
<linearGradient id="paint0_linear_10_56" x1="24.4389" y1="6.42193" x2="24.4389" y2="39.7753" gradientUnits="userSpaceOnUse">
<stop stop-color="white"/>
<stop offset="1" stop-color="#929497"/>
</linearGradient>
<linearGradient id="paint1_linear_10_56" x1="24.5253" y1="5.16676" x2="24.5253" y2="39.9094" gradientUnits="userSpaceOnUse">
<stop stop-color="#ACBDFF"/>
<stop offset="1" stop-color="#302DC6"/>
</linearGradient>
<linearGradient id="paint2_linear_10_56" x1="24.4389" y1="6.42193" x2="24.4389" y2="39.7753" gradientUnits="userSpaceOnUse">
<stop stop-color="white"/>
<stop offset="1" stop-color="#929497"/>
</linearGradient>
<linearGradient id="paint3_linear_10_56" x1="24.5253" y1="5.16676" x2="24.5253" y2="39.9094" gradientUnits="userSpaceOnUse">
<stop stop-color="#ACBDFF"/>
<stop offset="1" stop-color="#302DC6"/>
</linearGradient>
<linearGradient id="paint4_linear_10_56" x1="24.4389" y1="6.42193" x2="24.4389" y2="39.7753" gradientUnits="userSpaceOnUse">
<stop stop-color="white"/>
<stop offset="1" stop-color="#929497"/>
</linearGradient>
<linearGradient id="paint5_linear_10_56" x1="24.5253" y1="5.16676" x2="24.5253" y2="39.9094" gradientUnits="userSpaceOnUse">
<stop stop-color="#ACBDFF"/>
<stop offset="1" stop-color="#302DC6"/>
</linearGradient>
<linearGradient id="paint6_linear_10_56" x1="13.2753" y1="6.42189" x2="13.2753" y2="39.7753" gradientUnits="userSpaceOnUse">
<stop stop-color="white"/>
<stop offset="1" stop-color="#929497"/>
</linearGradient>
<linearGradient id="paint7_linear_10_56" x1="13.3505" y1="12.5487" x2="13.3505" y2="49.1191" gradientUnits="userSpaceOnUse">
<stop stop-color="#ACBDFF"/>
<stop offset="1" stop-color="#302DC6"/>
</linearGradient>
<linearGradient id="paint8_linear_10_56" x1="33.0031" y1="27.6743" x2="33.0031" y2="50.1702" gradientUnits="userSpaceOnUse">
<stop stop-color="#ACBDFF"/>
<stop offset="1" stop-color="#302DC6"/>
</linearGradient>
<clipPath id="clip0_10_56">
<rect width="44" height="48" fill="white"/>
</clipPath>
</defs>
</svg>
